<svg xmlns="http://www.w3.org/2000/svg" viewBox="0 0 280 50" fill="none">
  <!-- Employee Envoy Full Logo (Monochrome White) -->
  <g transform="translate(5, 5) scale(0.452591)">
    <circle cx="123.84" cy="44.19" r="44.19" fill="white" opacity="0.9"/>
    <path d="M123.45,15.92l-1.23-1.23c-2.4-2.4-6.33-2.4-8.73,0l-33.64,33.64c.5,5.34,1.98,10.6,4.42,15.5l39.19-39.19c2.4-2.4,2.4-6.33,0-8.73Z" fill="#1E293B"/>
    <path d="M124,46.65l-2.62-2.62c-2.02-2.02-5.32-2.02-7.34,0l-26.03,26.03c1.36,1.88,2.88,3.68,4.58,5.38s3.5,3.22,5.38,4.58l26.03-26.03c2.02-2.02,2.02-5.32,0-7.34Z" fill="#1E293B"/>
    <path d="M153.33,45.8l-1.23-1.23c-2.4-2.4-6.33-2.4-8.73,0l-39.19,39.19c4.91,2.44,10.16,3.92,15.5,4.42l33.64-33.64c2.4-2.4,2.4-6.33,0-8.73Z" fill="#1E293B"/>
  </g>
  <text x="55" y="33" font-family="'Plus Jakarta Sans', 'Inter', system-ui, sans-serif" font-weight="700" font-size="24" fill="white">Employee</text>
  <text x="183" y="33" font-family="'Plus Jakarta Sans', 'Inter', system-ui, sans-serif" font-weight="700" font-size="24" fill="white" opacity="0.8">Envoy</text>
</svg>
