<svg xmlns="http://www.w3.org/2000/svg" viewBox="0 0 280 50" fill="none">
  <!-- Employee Envoy Full Logo (Dark Mode) -->
  <g transform="translate(5, 5) scale(0.452591)">
    <circle cx="123.84" cy="44.19" r="44.19" fill="#EB9336"/>
    <path d="M123.45,15.92l-1.23-1.23c-2.4-2.4-6.33-2.4-8.73,0l-33.64,33.64c.5,5.34,1.98,10.6,4.42,15.5l39.19-39.19c2.4-2.4,2.4-6.33,0-8.73Z" fill="white"/>
    <path d="M124,46.65l-2.62-2.62c-2.02-2.02-5.32-2.02-7.34,0l-26.03,26.03c1.36,1.88,2.88,3.68,4.58,5.38s3.5,3.22,5.38,4.58l26.03-26.03c2.02-2.02,2.02-5.32,0-7.34Z" fill="white"/>
    <path d="M153.33,45.8l-1.23-1.23c-2.4-2.4-6.33-2.4-8.73,0l-39.19,39.19c4.91,2.44,10.16,3.92,15.5,4.42l33.64-33.64c2.4-2.4,2.4-6.33,0-8.73Z" fill="white"/>
  </g>
  <!-- Wordmark (Elza Round vector paths) -->
  <g transform="translate(50, 10) scale(0.91) translate(0, -100.18)">
    <path d="M.67,124.55c-.44-.44-.67-1.06-.67-1.86v-18.54c0-.84.22-1.47.67-1.89.44-.42,1.06-.63,1.86-.63h12.63c.58,0,1.05.19,1.43.57.38.38.56.86.56,1.46s-.19,1.08-.56,1.45c-.38.37-.85.55-1.43.55H4.85v5.55h9.24c.58,0,1.05.18,1.43.55.38.37.56.85.56,1.45s-.18,1.08-.55,1.45c-.37.37-.85.55-1.45.55H4.85v5.95h10.5c.62,0,1.12.18,1.5.55.38.37.56.86.56,1.48s-.19,1.09-.56,1.48c-.38.39-.88.58-1.5.58H2.53c-.8,0-1.42-.22-1.86-.67Z" fill="white"/>
    <path d="M21.22,124.8c-.43-.43-.65-.99-.65-1.68v-13.03c0-.67.22-1.21.65-1.63s.98-.63,1.65-.63,1.2.19,1.61.58c.41.39.63.9.65,1.55l.03.73c.47-.89,1.14-1.62,2.03-2.19s1.94-.86,3.16-.86c1.31,0,2.39.27,3.24.81.85.54,1.5,1.35,1.94,2.41.6-1.02,1.37-1.81,2.31-2.38.94-.56,2.03-.85,3.27-.85,1.97,0,3.43.58,4.37,1.75.94,1.16,1.41,2.8,1.41,4.9v8.84c0,.69-.21,1.25-.63,1.68-.42.43-.98.65-1.66.65s-1.28-.22-1.71-.65c-.43-.43-.65-.99-.65-1.68v-7.98c0-1.29-.23-2.23-.68-2.84s-1.16-.91-2.11-.91c-1.09,0-1.92.38-2.49,1.15-.58.76-.86,1.88-.86,3.34v7.25c0,.69-.22,1.25-.65,1.68-.43.43-1,.65-1.71.65-.66,0-1.21-.22-1.65-.65-.43-.43-.65-.99-.65-1.68v-7.94c0-1.26-.23-2.21-.7-2.84s-1.17-.95-2.13-.95c-1.04,0-1.87.38-2.48,1.13-.61.75-.91,1.87-.91,3.36v7.25c0,.69-.22,1.25-.65,1.68-.43.43-.98.65-1.65.65-.71,0-1.28-.22-1.71-.65Z" fill="white"/>
    <path d="M51.37,130.44c-.43-.43-.65-.99-.65-1.68v-18.71c0-.69.2-1.23.61-1.63.41-.4.95-.6,1.61-.6s1.17.19,1.58.58c.41.39.63.89.65,1.51l.03.9c.42-.89,1.11-1.64,2.06-2.26.95-.62,2.09-.93,3.42-.93,1.51,0,2.81.38,3.92,1.13,1.11.75,1.96,1.79,2.56,3.12.6,1.33.9,2.85.9,4.55v.4c0,1.68-.3,3.2-.91,4.54-.61,1.34-1.47,2.39-2.58,3.14-1.11.75-2.42,1.13-3.92,1.13-1.2,0-2.25-.27-3.17-.81-.92-.54-1.62-1.22-2.11-2.04v5.98c0,.69-.21,1.25-.63,1.68-.42.43-.98.65-1.66.65s-1.28-.22-1.71-.65ZM62.33,120.71c.68-.9,1.01-2.2,1.01-3.9v-.37c0-1.71-.34-3.01-1.01-3.91s-1.68-1.35-3.01-1.35-2.37.45-3.04,1.35c-.68.9-1.01,2.2-1.01,3.91v.37c0,1.71.34,3.01,1.01,3.9.68.9,1.69,1.35,3.04,1.35s2.33-.45,3.01-1.35Z" fill="white"/>
    <path d="M71.97,124.8c-.43-.43-.65-.99-.65-1.68v-20.61c0-.69.22-1.25.65-1.68.43-.43,1-.65,1.71-.65.66,0,1.21.22,1.65.65.43.43.65.99.65,1.68v20.61c0,.69-.22,1.25-.65,1.68-.43.43-.98.65-1.65.65-.71,0-1.28-.22-1.71-.65Z" fill="white"/>
    <path d="M83.35,124.53c-1.33-.74-2.36-1.78-3.09-3.12-.73-1.34-1.1-2.86-1.1-4.57v-.4c0-1.73.37-3.26,1.1-4.59.73-1.33,1.76-2.37,3.09-3.11,1.33-.74,2.86-1.11,4.59-1.11s3.29.37,4.62,1.11c1.33.74,2.36,1.78,3.09,3.11.73,1.33,1.1,2.86,1.1,4.59v.4c0,1.71-.37,3.23-1.1,4.57-.73,1.34-1.76,2.38-3.09,3.12-1.33.74-2.87,1.11-4.62,1.11s-3.26-.37-4.59-1.11ZM91,120.71c.67-.88,1-2.17,1-3.87v-.4c0-1.71-.33-3-1-3.87-.66-.88-1.68-1.31-3.06-1.31s-2.34.44-3.04,1.31c-.7.88-1.05,2.17-1.05,3.87v.4c0,1.68.35,2.97,1.05,3.85.7.89,1.71,1.33,3.04,1.33s2.39-.44,3.06-1.31Z" fill="white"/>
    <path d="M103.3,130.56c-.42-.35-.63-.85-.63-1.5,0-.2.02-.38.07-.55.04-.17.09-.33.13-.48l1.2-2.99-5.88-13.96c-.16-.42-.23-.83-.23-1.23,0-.53.22-1,.67-1.41.44-.41,1.01-.61,1.69-.61.58,0,1.02.14,1.33.43.31.29.58.7.8,1.23l4.05,10.5,3.89-10.44c.2-.55.47-.98.8-1.28s.8-.45,1.4-.45c.64,0,1.17.19,1.58.58.41.39.61.85.61,1.38,0,.4-.09.8-.27,1.2l-7.41,18.58c-.4,1.02-1.12,1.53-2.16,1.53-.66,0-1.21-.18-1.63-.53Z" fill="white"/>
    <path d="M120.23,124.55c-1.36-.73-2.41-1.76-3.14-3.09-.73-1.33-1.1-2.88-1.1-4.65v-.37c0-1.75.36-3.29,1.08-4.62.72-1.33,1.74-2.36,3.07-3.09,1.33-.73,2.88-1.1,4.65-1.1,1.88,0,3.45.41,4.69,1.23,1.24.82,2.14,1.83,2.69,3.02.55,1.2.84,2.4.86,3.62,0,.73-.18,1.27-.55,1.61-.37.34-.94.51-1.71.51h-10.24v.07c.11,1.49.54,2.59,1.3,3.32.75.73,1.86,1.1,3.32,1.1.75,0,1.45-.12,2.08-.35.63-.23,1.24-.59,1.81-1.08.24-.22.48-.42.7-.6.27-.18.5-.31.71-.4.21-.09.45-.13.71-.13.49,0,.88.16,1.18.47.3.31.45.71.45,1.2,0,.4-.1.76-.3,1.08-.2.32-.52.68-.96,1.08-.73.67-1.68,1.21-2.86,1.63-1.17.42-2.36.63-3.56.63-1.91,0-3.54-.37-4.9-1.1ZM127.43,112.07c-.64-.65-1.54-.98-2.69-.98s-2.13.31-2.81.93-1.11,1.55-1.31,2.79h7.88c-.07-1.17-.42-2.09-1.06-2.74Z" fill="white"/>
    <path d="M139.57,124.55c-1.36-.73-2.41-1.76-3.14-3.09-.73-1.33-1.1-2.88-1.1-4.65v-.37c0-1.75.36-3.29,1.08-4.62.72-1.33,1.74-2.36,3.07-3.09,1.33-.73,2.88-1.1,4.65-1.1,1.88,0,3.45.41,4.69,1.23,1.24.82,2.14,1.83,2.69,3.02.55,1.2.84,2.4.86,3.62,0,.73-.18,1.27-.55,1.61s-.94.51-1.71.51h-10.24v.07c.11,1.49.54,2.59,1.3,3.32s1.86,1.1,3.32,1.1c.75,0,1.45-.12,2.08-.35.63-.23,1.23-.59,1.81-1.08.24-.22.48-.42.7-.6.27-.18.5-.31.71-.4.21-.09.45-.13.71-.13.49,0,.88.16,1.18.47s.45.71.45,1.2c0,.4-.1.76-.3,1.08s-.52.68-.96,1.08c-.73.67-1.68,1.21-2.86,1.63s-2.36.63-3.56.63c-1.91,0-3.54-.37-4.9-1.1ZM146.77,112.07c-.64-.65-1.54-.98-2.69-.98s-2.13.31-2.81.93-1.11,1.55-1.31,2.79h7.88c-.07-1.17-.42-2.09-1.06-2.74Z" fill="white"/>
    <path d="M156.24,124.55c-.44-.44-.67-1.06-.67-1.86v-18.54c0-.84.22-1.47.67-1.89s1.06-.63,1.86-.63h12.63c.58,0,1.05.19,1.43.57s.57.86.57,1.46-.19,1.08-.57,1.45c-.38.37-.85.55-1.43.55h-10.3v5.55h9.24c.58,0,1.05.18,1.43.55.38.37.57.85.57,1.45s-.18,1.08-.55,1.45c-.37.37-.85.55-1.45.55h-9.24v5.95h10.5c.62,0,1.12.18,1.5.55.38.37.57.86.57,1.48s-.19,1.09-.57,1.48c-.38.39-.88.58-1.5.58h-12.83c-.8,0-1.42-.22-1.86-.67Z" fill="#EB9336"/>
    <path d="M176.8,124.8c-.43-.43-.65-.99-.65-1.68v-13.03c0-.67.22-1.21.65-1.63.43-.42.98-.63,1.65-.63s1.19.19,1.58.56c.39.38.61.9.68,1.56l.03.76c.49-.89,1.19-1.62,2.09-2.21.91-.59,2.03-.88,3.36-.88,2.04,0,3.54.58,4.5,1.75.96,1.16,1.45,2.76,1.45,4.8v8.94c0,.69-.22,1.25-.65,1.68-.43.43-1,.65-1.71.65-.67,0-1.21-.22-1.65-.65-.43-.43-.65-.99-.65-1.68v-7.74c0-1.33-.24-2.33-.71-2.99s-1.26-1-2.34-1-1.96.39-2.63,1.16c-.66.78-1,1.84-1,3.19v7.38c0,.69-.22,1.25-.65,1.68-.43.43-.98.65-1.65.65-.71,0-1.28-.22-1.71-.65Z" fill="#EB9336"/>
    <path d="M200.38,124.81c-.55-.42-1-1.01-1.33-1.76l-4.79-11.96c-.18-.35-.27-.74-.27-1.16,0-.6.22-1.1.65-1.5.43-.4,1-.6,1.71-.6.58,0,1.04.16,1.38.46.34.31.6.71.78,1.2l3.99,11.03,3.99-11.07c.18-.51.43-.91.75-1.2s.76-.43,1.31-.43c.67,0,1.21.2,1.63.6.42.4.63.88.63,1.43,0,.38-.08.75-.23,1.13l-4.79,12.06c-.33.75-.78,1.34-1.35,1.76-.56.42-1.25.63-2.04.63s-1.47-.21-2.03-.63Z" fill="#EB9336"/>
    <path d="M216.26,124.53c-1.33-.74-2.36-1.78-3.09-3.12-.73-1.34-1.1-2.86-1.1-4.57v-.4c0-1.73.37-3.26,1.1-4.59.73-1.33,1.76-2.37,3.09-3.11,1.33-.74,2.86-1.11,4.59-1.11s3.29.37,4.62,1.11c1.33.74,2.36,1.78,3.09,3.11.73,1.33,1.1,2.86,1.1,4.59v.4c0,1.71-.37,3.23-1.1,4.57-.73,1.34-1.76,2.38-3.09,3.12-1.33.74-2.87,1.11-4.62,1.11s-3.26-.37-4.59-1.11ZM223.91,120.71c.67-.88,1-2.17,1-3.87v-.4c0-1.71-.33-3-1-3.87-.67-.88-1.68-1.31-3.06-1.31s-2.34.44-3.04,1.31c-.7.88-1.05,2.17-1.05,3.87v.4c0,1.68.35,2.97,1.05,3.85.7.89,1.71,1.33,3.04,1.33s2.39-.44,3.06-1.31Z" fill="#EB9336"/>
    <path d="M236.2,130.56c-.42-.35-.63-.85-.63-1.5,0-.2.02-.38.07-.55.04-.17.09-.33.13-.48l1.2-2.99-5.88-13.96c-.16-.42-.23-.83-.23-1.23,0-.53.22-1,.66-1.41.44-.41,1.01-.61,1.7-.61.58,0,1.02.14,1.33.43s.58.7.8,1.23l4.05,10.5,3.89-10.44c.2-.55.47-.98.8-1.28s.8-.45,1.4-.45c.64,0,1.17.19,1.58.58s.62.85.62,1.38c0,.4-.09.8-.27,1.2l-7.41,18.58c-.4,1.02-1.12,1.53-2.16,1.53-.67,0-1.21-.18-1.63-.53Z" fill="#EB9336"/>
  </g>
</svg>
